<mxfile host="app.diagrams.net" modified="2024-07-17T02:20:07.439Z" agent="Mozilla/5.0 (Windows NT 10.0; Win64; x64) AppleWebKit/537.36 (KHTML, like Gecko) Chrome/126.0.0.0 Safari/537.36" etag="wGaivJYdPWaUpWR5Hs8d" version="24.7.0" type="device">
  <diagram name="Page-1" id="GDBc5qzhOeVVL0MseJc_">
    <mxGraphModel dx="2074" dy="1106" grid="1" gridSize="10" guides="1" tooltips="1" connect="1" arrows="1" fold="1" page="1" pageScale="1" pageWidth="850" pageHeight="1100" math="0" shadow="0">
      <root>
        <mxCell id="0" />
        <mxCell id="1" parent="0" />
        <object placeholders="1" c4Name="Application Form" c4Description="" label="&lt;div&gt;%c4Name%&lt;/div&gt;&lt;div&gt;React Web Application&lt;/div&gt;" id="tntT3TjCibs3xelkAS6r-1">
          <mxCell style="rounded=1;whiteSpace=wrap;html=1;labelBackgroundColor=none;fillColor=#1168BD;fontColor=#ffffff;align=center;arcSize=10;strokeColor=#1168BD;metaEdit=1;metaData={&quot;c4Type&quot;:{&quot;editable&quot;:false}};points=[[0.25,0,0],[0.5,0,0],[0.75,0,0],[1,0.25,0],[1,0.5,0],[1,0.75,0],[0.75,1,0],[0.5,1,0],[0.25,1,0],[0,0.75,0],[0,0.5,0],[0,0.25,0]];" vertex="1" parent="1">
            <mxGeometry x="110" y="260" width="130" height="90" as="geometry" />
          </mxCell>
        </object>
        <mxCell id="tntT3TjCibs3xelkAS6r-2" value="Amazon&lt;div&gt;S3&lt;/div&gt;" style="shape=cylinder3;whiteSpace=wrap;html=1;boundedLbl=1;backgroundOutline=1;size=15;" vertex="1" parent="1">
          <mxGeometry x="590" y="150" width="70" height="100" as="geometry" />
        </mxCell>
        <mxCell id="tntT3TjCibs3xelkAS6r-3" value="" style="endArrow=classic;html=1;rounded=0;" edge="1" parent="1">
          <mxGeometry width="50" height="50" relative="1" as="geometry">
            <mxPoint x="240" y="300" as="sourcePoint" />
            <mxPoint x="360" y="210" as="targetPoint" />
          </mxGeometry>
        </mxCell>
        <mxCell id="tntT3TjCibs3xelkAS6r-4" value="&lt;h5&gt;userinfo&lt;br&gt;resume&lt;/h5&gt;" style="text;strokeColor=none;fillColor=none;html=1;fontSize=24;fontStyle=1;verticalAlign=middle;align=center;" vertex="1" parent="1">
          <mxGeometry x="210" y="190" width="100" height="40" as="geometry" />
        </mxCell>
        <mxCell id="tntT3TjCibs3xelkAS6r-5" value="Java File Hosting API Service" style="rounded=0;whiteSpace=wrap;html=1;" vertex="1" parent="1">
          <mxGeometry x="360" y="180" width="120" height="60" as="geometry" />
        </mxCell>
        <mxCell id="tntT3TjCibs3xelkAS6r-7" value="" style="endArrow=classic;html=1;rounded=0;entryX=-0.029;entryY=0.58;entryDx=0;entryDy=0;entryPerimeter=0;exitX=1;exitY=0.5;exitDx=0;exitDy=0;" edge="1" parent="1" source="tntT3TjCibs3xelkAS6r-5" target="tntT3TjCibs3xelkAS6r-2">
          <mxGeometry width="50" height="50" relative="1" as="geometry">
            <mxPoint x="480" y="220" as="sourcePoint" />
            <mxPoint x="530" y="170" as="targetPoint" />
          </mxGeometry>
        </mxCell>
        <mxCell id="tntT3TjCibs3xelkAS6r-8" value="redis" style="rounded=0;whiteSpace=wrap;html=1;" vertex="1" parent="1">
          <mxGeometry x="690" y="195" width="80" height="30" as="geometry" />
        </mxCell>
        <mxCell id="tntT3TjCibs3xelkAS6r-9" value="Mysql" style="rounded=0;whiteSpace=wrap;html=1;" vertex="1" parent="1">
          <mxGeometry x="690" y="240" width="80" height="30" as="geometry" />
        </mxCell>
        <mxCell id="tntT3TjCibs3xelkAS6r-10" value="" style="endArrow=none;dashed=1;html=1;rounded=0;" edge="1" parent="1">
          <mxGeometry width="50" height="50" relative="1" as="geometry">
            <mxPoint x="670" y="130" as="sourcePoint" />
            <mxPoint x="790" y="130" as="targetPoint" />
          </mxGeometry>
        </mxCell>
        <mxCell id="tntT3TjCibs3xelkAS6r-12" value="" style="endArrow=none;dashed=1;html=1;rounded=0;" edge="1" parent="1">
          <mxGeometry width="50" height="50" relative="1" as="geometry">
            <mxPoint x="790" y="280" as="sourcePoint" />
            <mxPoint x="790" y="130" as="targetPoint" />
          </mxGeometry>
        </mxCell>
        <mxCell id="tntT3TjCibs3xelkAS6r-13" value="" style="endArrow=none;dashed=1;html=1;rounded=0;" edge="1" parent="1">
          <mxGeometry width="50" height="50" relative="1" as="geometry">
            <mxPoint x="670" y="280" as="sourcePoint" />
            <mxPoint x="670" y="130" as="targetPoint" />
          </mxGeometry>
        </mxCell>
        <object placeholders="1" c4Name="Dashboard" c4Description="" label="&lt;div&gt;%c4Name%&lt;/div&gt;&lt;div&gt;React Web Application&lt;/div&gt;" id="tntT3TjCibs3xelkAS6r-15">
          <mxCell style="rounded=1;whiteSpace=wrap;html=1;labelBackgroundColor=none;fillColor=#1168BD;fontColor=#ffffff;align=center;arcSize=10;strokeColor=#1168BD;metaEdit=1;metaData={&quot;c4Type&quot;:{&quot;editable&quot;:false}};points=[[0.25,0,0],[0.5,0,0],[0.75,0,0],[1,0.25,0],[1,0.5,0],[1,0.75,0],[0.75,1,0],[0.5,1,0],[0.25,1,0],[0,0.75,0],[0,0.5,0],[0,0.25,0]];" vertex="1" parent="1">
            <mxGeometry x="570" y="420" width="130" height="90" as="geometry" />
          </mxCell>
        </object>
        <mxCell id="tntT3TjCibs3xelkAS6r-16" value="" style="endArrow=classic;html=1;rounded=0;" edge="1" parent="1">
          <mxGeometry width="50" height="50" relative="1" as="geometry">
            <mxPoint x="624.5" y="250" as="sourcePoint" />
            <mxPoint x="625" y="310" as="targetPoint" />
          </mxGeometry>
        </mxCell>
        <mxCell id="tntT3TjCibs3xelkAS6r-17" value="Java API Service(Auth, User)" style="rounded=0;whiteSpace=wrap;html=1;" vertex="1" parent="1">
          <mxGeometry x="570" y="310" width="120" height="60" as="geometry" />
        </mxCell>
        <mxCell id="tntT3TjCibs3xelkAS6r-18" value="" style="endArrow=classic;html=1;rounded=0;" edge="1" parent="1">
          <mxGeometry width="50" height="50" relative="1" as="geometry">
            <mxPoint x="629.5" y="370" as="sourcePoint" />
            <mxPoint x="629.5" y="420" as="targetPoint" />
          </mxGeometry>
        </mxCell>
        <mxCell id="tntT3TjCibs3xelkAS6r-19" value="" style="endArrow=classic;html=1;rounded=0;entryX=0.75;entryY=1;entryDx=0;entryDy=0;" edge="1" parent="1" target="tntT3TjCibs3xelkAS6r-17">
          <mxGeometry width="50" height="50" relative="1" as="geometry">
            <mxPoint x="660" y="420" as="sourcePoint" />
            <mxPoint x="710" y="370" as="targetPoint" />
          </mxGeometry>
        </mxCell>
        <mxCell id="tntT3TjCibs3xelkAS6r-20" value="" style="endArrow=classic;html=1;rounded=0;entryX=0.855;entryY=1;entryDx=0;entryDy=-4.35;entryPerimeter=0;" edge="1" parent="1" target="tntT3TjCibs3xelkAS6r-2">
          <mxGeometry width="50" height="50" relative="1" as="geometry">
            <mxPoint x="650" y="310" as="sourcePoint" />
            <mxPoint x="700" y="260" as="targetPoint" />
          </mxGeometry>
        </mxCell>
        <mxCell id="tntT3TjCibs3xelkAS6r-21" value="kafka" style="rounded=0;whiteSpace=wrap;html=1;" vertex="1" parent="1">
          <mxGeometry x="690" y="150" width="80" height="30" as="geometry" />
        </mxCell>
        <mxCell id="tntT3TjCibs3xelkAS6r-22" value="" style="endArrow=none;dashed=1;html=1;rounded=0;" edge="1" parent="1">
          <mxGeometry width="50" height="50" relative="1" as="geometry">
            <mxPoint x="670" y="280" as="sourcePoint" />
            <mxPoint x="790" y="280" as="targetPoint" />
          </mxGeometry>
        </mxCell>
      </root>
    </mxGraphModel>
  </diagram>
</mxfile>
